<svg preserveAspectRatio="xMinYMid meet" width="93.9995" height="40.8333" overflow="visible" style="display: block;" viewBox="0 0 93.9995 40.8333" fill="none" xmlns="http://www.w3.org/2000/svg">
<g id="Capa_1">
<path id="Vector" d="M1.87548 31.4262V13.2369H0V8.32493H1.87548C2.27531 1.78996 6.50616 0 9.14044 0H10.5774V5.45281C7.86307 5.45281 7.30473 6.20209 7.18434 8.32493H10.298V13.2369H7.18434V31.4268H1.87548V31.4262Z" fill="var(--fill-0, #EA3398)"/>
<path id="Vector_2" d="M9.97931 19.8969C9.97931 13.2369 15.128 7.53419 21.7938 7.53419C28.4596 7.53419 33.5282 13.1534 33.5282 19.8134C33.5282 26.4733 28.5789 32.1761 21.7938 32.1761C15.0087 32.1761 9.97931 26.5568 9.97931 19.8969ZM28.2199 19.9378C28.2199 16.15 25.505 12.6121 21.7535 12.6121C18.2008 12.6121 15.2871 16.025 15.2871 19.8963C15.2871 23.7677 18.002 27.0971 21.7932 27.0971C25.5845 27.0971 28.2199 23.7671 28.2199 19.9372V19.9378Z" fill="var(--fill-0, #EA3398)"/>
<path id="Vector_3" d="M35.4451 31.4262V8.32493H40.3149V10.3648H40.395C41.7916 8.20052 42.9492 7.53419 45.4642 7.53419H45.584V12.9035C42.3903 13.0285 40.7539 14.8184 40.7539 18.2734V31.4268H35.4456L35.4451 31.4262Z" fill="var(--fill-0, #EA3398)"/>
<path id="Vector_4" d="M63.9836 28.4712C62.2274 31.0934 59.7125 32.1755 56.7192 32.1755C51.0111 32.1755 45.3835 26.9727 45.3835 19.6464C45.3835 13.1114 50.4527 7.53362 56.6794 7.53362C59.5534 7.53362 62.1479 8.65724 63.7445 11.155H63.8246V8.32436H68.9738V27.5964C68.9738 35.9628 63.385 40.8333 56.8794 40.8333C51.93 40.8333 47.4998 37.8777 45.7436 33.1742H51.8102C53.2869 35.0056 55.0436 35.7549 57.2786 35.7549C60.9506 35.7549 63.7848 32.9242 64.0637 28.5541L63.9836 28.4712ZM63.6644 19.6469C63.6644 16.0256 60.7905 12.6127 57.1185 12.6127C53.6464 12.6127 50.6924 15.6927 50.6924 19.689C50.6924 23.6853 53.4863 27.0982 57.3184 27.0982C61.1505 27.0982 63.6644 23.6018 63.6644 19.6475V19.6469Z" fill="var(--fill-0, #EA3398)"/>
<path id="Vector_5" d="M76.4774 22.3526C76.8761 24.392 79.311 27.0976 82.5842 27.0976C84.7795 27.0976 86.6157 26.1819 87.6932 24.142H93.2815C91.8445 28.8041 87.2939 32.1755 82.5842 32.1755C75.919 32.1755 70.8891 26.7647 70.8891 19.9378C70.8891 13.1108 75.7986 7.53419 82.5439 7.53419C89.2892 7.53419 93.9994 12.8206 93.9994 19.5634C93.9994 20.4377 93.8796 21.3534 93.6797 22.3526H76.4768H76.4774ZM88.5713 17.8985C88.0527 14.5685 85.8575 12.6121 82.5445 12.6121C79.6308 12.6121 77.1561 14.3606 76.3178 17.8985H88.5713Z" fill="var(--fill-0, #EA3398)"/>
</g>
</svg>
