<?xml version="1.0" encoding="UTF-8"?><svg id="Capa_2" xmlns="http://www.w3.org/2000/svg" viewBox="0 0 595.51 595.51"><defs><style>.cls-1{fill:#25005b;}.cls-2{fill:#b9aef4;}</style></defs><g id="Capa_1"><path class="cls-2" d="M595.51,97.81V0H0v595.51h595.51v-302.09c0-18.01-14.6-32.6-32.6-32.6h-65.21c-18.01,0-32.6-14.6-32.6-32.6v-65.21c0-18.01,14.6-32.6,32.6-32.6h65.21c18.01,0,32.6-14.6,32.6-32.6ZM465.1,293.51v65.21c0,18.01-14.6,32.6-32.6,32.6h0c-18.01,0-32.6-14.6-32.6-32.6v-65.21c0-18.01,14.6-32.6,32.6-32.6h0c18.01,0,32.6,14.6,32.6,32.6Z"/><path class="cls-1" d="M88.57,540.4h-4.2v-5.76h-.12c-1.4,2.12-3.23,3.74-5.49,4.86-2.26,1.12-4.69,1.68-7.29,1.68-4.96,0-9.14-1.65-12.54-4.95-3.4-3.3-5.1-7.41-5.1-12.33s1.72-8.96,5.16-12.24c3.44-3.28,7.6-4.92,12.48-4.92,2.64,0,5.09.56,7.35,1.68,2.26,1.12,4.07,2.76,5.43,4.92h.12v-5.76h4.2v32.82ZM80.8,533.47c2.54-2.62,3.81-5.77,3.81-9.45s-1.27-6.85-3.81-9.51-5.65-3.99-9.33-3.99c-3.88,0-7.09,1.29-9.63,3.87-2.54,2.58-3.81,5.81-3.81,9.69s1.28,7.02,3.84,9.54,5.76,3.78,9.6,3.78,6.79-1.31,9.33-3.93Z"/><path class="cls-1" d="M131.11,523.9c0,4.92-1.7,9.03-5.1,12.33-3.4,3.3-7.58,4.95-12.54,4.95-2.56,0-4.97-.57-7.23-1.71-2.26-1.14-4.11-2.75-5.55-4.83h-.12v5.76h-4.2v-44.4h4.2v17.34h.12c1.48-2.08,3.33-3.7,5.55-4.86s4.63-1.74,7.23-1.74c4.88,0,9.04,1.64,12.48,4.92,3.44,3.28,5.16,7.36,5.16,12.24ZM126.91,524.08c0-3.88-1.27-7.11-3.81-9.69-2.54-2.58-5.75-3.87-9.63-3.87-3.68,0-6.79,1.33-9.33,3.99-2.54,2.66-3.81,5.83-3.81,9.51s1.27,6.83,3.81,9.45c2.54,2.62,5.65,3.93,9.33,3.93s7.04-1.26,9.6-3.78c2.56-2.52,3.84-5.7,3.84-9.54Z"/><path class="cls-1" d="M161.29,540.4h-4.98l-8.7-13.14-8.7,13.14h-4.98l11.22-16.68-11.22-16.14h5.04l8.64,12.66,8.58-12.66h5.1l-11.22,16.14,11.22,16.68Z"/><path class="cls-1" d="M59.97,471.47v-45.14h-4.85v-12.19h4.85c1.03-16.22,11.98-20.66,18.8-20.66h3.72v13.53c-7.02,0-8.47,1.86-8.78,7.13h8.06v12.19h-8.06v45.14h-13.74Z"/><path class="cls-1" d="M80.94,442.86c0-16.53,13.32-30.68,30.57-30.68s30.37,13.94,30.37,30.47-12.81,30.68-30.37,30.68-30.57-13.94-30.57-30.47ZM128.15,442.96c0-9.4-7.02-18.18-16.73-18.18-9.19,0-16.73,8.47-16.73,18.08s7.02,17.87,16.84,17.87,16.63-8.26,16.63-17.77Z"/><path class="cls-1" d="M146.84,471.47v-57.33h12.6v5.06h.21c3.62-5.37,6.61-7.02,13.12-7.02h.31v13.32c-8.26.31-12.5,4.75-12.5,13.32v32.64h-13.74Z"/><path class="cls-1" d="M220.7,464.14c-4.54,6.51-11.05,9.19-18.8,9.19-14.77,0-29.34-12.91-29.34-31.09,0-16.22,13.12-30.06,29.23-30.06,7.44,0,14.15,2.79,18.28,8.99h.21v-7.02h13.32v47.82c0,20.76-14.46,32.85-31.3,32.85-12.81,0-24.27-7.33-28.82-19.01h15.7c3.82,4.54,8.37,6.4,14.15,6.4,9.5,0,16.84-7.02,17.56-17.87l-.21-.21ZM219.87,442.24c0-8.99-7.44-17.46-16.94-17.46-8.99,0-16.63,7.64-16.63,17.56s7.23,18.39,17.15,18.39,16.42-8.68,16.42-18.49Z"/><path class="cls-1" d="M253.03,448.96c1.03,5.06,7.33,11.78,15.8,11.78,5.68,0,10.43-2.27,13.22-7.33h14.46c-3.72,11.57-15.49,19.93-27.68,19.93-17.25,0-30.26-13.43-30.26-30.37s12.7-30.78,30.16-30.78,29.65,13.12,29.65,29.85c0,2.17-.31,4.44-.83,6.92h-44.52ZM284.33,437.9c-1.34-8.26-7.02-13.12-15.6-13.12-7.54,0-13.94,4.34-16.11,13.12h31.71Z"/></g></svg>