<?xml version="1.0" encoding="UTF-8"?><svg id="Capa_3" xmlns="http://www.w3.org/2000/svg" viewBox="0 0 595.51 595.51"><defs><style>.cls-1{fill:#25005b;}.cls-2{fill:#9fccb2;}</style></defs><g id="Capa_1"><path class="cls-2" d="M595.51,97.81V0H0v595.51h595.51v-302.09c0-18.01-14.6-32.6-32.6-32.6h-65.21c-18.01,0-32.6-14.6-32.6-32.6v-65.21c0-18.01,14.6-32.6,32.6-32.6h65.21c18.01,0,32.6-14.6,32.6-32.6ZM465.1,293.51v65.21c0,18.01-14.6,32.6-32.6,32.6h0c-18.01,0-32.6-14.6-32.6-32.6v-65.21c0-18.01,14.6-32.6,32.6-32.6h0c18.01,0,32.6,14.6,32.6,32.6Z"/><path class="cls-1" d="M73.15,531.15c0,3.12-.94,5.57-2.82,7.35-1.88,1.78-4.38,2.67-7.5,2.67-2.92,0-5.33-.95-7.23-2.85-1.9-1.9-2.85-4.33-2.85-7.29v-.36h4.2c.04,2,.55,3.62,1.53,4.86s2.43,1.86,4.35,1.86,3.37-.51,4.47-1.53,1.65-2.47,1.65-4.35c0-1.6-.52-2.89-1.56-3.87s-2.31-1.74-3.81-2.28-3-1.11-4.5-1.71c-1.5-.6-2.77-1.54-3.81-2.82-1.04-1.28-1.56-2.94-1.56-4.98,0-2.68.89-4.87,2.67-6.57,1.78-1.7,4.01-2.55,6.69-2.55,2.52,0,4.64.86,6.36,2.58s2.58,3.84,2.58,6.36h-4.2c-.08-1.48-.56-2.71-1.44-3.69s-2.04-1.47-3.48-1.47-2.58.47-3.54,1.41-1.44,2.11-1.44,3.51.52,2.46,1.56,3.3c1.04.84,2.31,1.52,3.81,2.04s3,1.1,4.5,1.74c1.5.64,2.77,1.68,3.81,3.12,1.04,1.44,1.56,3.28,1.56,5.52Z"/><path class="cls-1" d="M94.39,511.36h-7.86v29.04h-4.2v-29.04h-6.9v-3.78h6.9v-11.58h4.2v11.58h7.86v3.78Z"/><path class="cls-1" d="M127.39,540.4h-3.96v-5.1h-.12c-.92,1.92-2.33,3.38-4.23,4.38-1.9,1-3.99,1.5-6.27,1.5-4.92,0-8.68-1.64-11.28-4.92-1.92-2.4-2.88-5.92-2.88-10.56v-18.12h4.2v18.06c0,7.84,3.32,11.76,9.96,11.76,2.76,0,5.08-.88,6.96-2.64,1.32-1.28,2.22-2.7,2.7-4.26.48-1.56.72-3.42.72-5.58v-17.34h4.2v32.82Z"/><path class="cls-1" d="M168.49,540.4h-4.2v-5.76h-.12c-1.4,2.08-3.25,3.69-5.55,4.83-2.3,1.14-4.71,1.71-7.23,1.71-4.96,0-9.14-1.65-12.54-4.95-3.4-3.3-5.1-7.41-5.1-12.33s1.72-8.96,5.16-12.24c3.44-3.28,7.6-4.92,12.48-4.92,2.56,0,4.98.56,7.26,1.68,2.28,1.12,4.12,2.72,5.52,4.8h.12v-17.22h4.2v44.4ZM160.72,533.47c2.54-2.62,3.81-5.77,3.81-9.45s-1.27-6.85-3.81-9.51-5.65-3.99-9.33-3.99c-3.88,0-7.09,1.29-9.63,3.87-2.54,2.58-3.81,5.81-3.81,9.69s1.28,7.02,3.84,9.54,5.76,3.78,9.6,3.78,6.79-1.31,9.33-3.93Z"/><path class="cls-1" d="M180.61,503.56h-4.2v-7.56h4.2v7.56ZM180.61,540.4h-4.2v-32.82h4.2v32.82Z"/><path class="cls-1" d="M221.35,523.96c0,4.72-1.69,8.77-5.07,12.15-3.38,3.38-7.43,5.07-12.15,5.07s-8.65-1.68-12.03-5.04-5.07-7.34-5.07-11.94,1.66-8.86,4.98-12.3c3.32-3.44,7.36-5.16,12.12-5.16s8.72,1.7,12.12,5.1c3.4,3.4,5.1,7.44,5.1,12.12ZM217.15,523.78c0-3.6-1.27-6.71-3.81-9.33-2.54-2.62-5.59-3.93-9.15-3.93s-6.71,1.35-9.21,4.05c-2.5,2.7-3.75,5.89-3.75,9.57s1.26,6.71,3.78,9.33c2.52,2.62,5.58,3.93,9.18,3.93s6.81-1.33,9.27-3.99c2.46-2.66,3.69-5.87,3.69-9.63Z"/><path class="cls-1" d="M59.97,471.47v-45.14h-4.85v-12.19h4.85c1.03-16.22,11.98-20.66,18.8-20.66h3.72v13.53c-7.02,0-8.47,1.86-8.78,7.13h8.06v12.19h-8.06v45.14h-13.74Z"/><path class="cls-1" d="M80.94,442.86c0-16.53,13.32-30.68,30.57-30.68s30.37,13.94,30.37,30.47-12.81,30.68-30.37,30.68-30.57-13.94-30.57-30.47ZM128.15,442.96c0-9.4-7.02-18.18-16.73-18.18-9.19,0-16.73,8.47-16.73,18.08s7.02,17.87,16.84,17.87,16.63-8.26,16.63-17.77Z"/><path class="cls-1" d="M146.84,471.47v-57.33h12.6v5.06h.21c3.62-5.37,6.61-7.02,13.12-7.02h.31v13.32c-8.26.31-12.5,4.75-12.5,13.32v32.64h-13.74Z"/><path class="cls-1" d="M220.7,464.14c-4.54,6.51-11.05,9.19-18.8,9.19-14.77,0-29.34-12.91-29.34-31.09,0-16.22,13.12-30.06,29.23-30.06,7.44,0,14.15,2.79,18.28,8.99h.21v-7.02h13.32v47.82c0,20.76-14.46,32.85-31.3,32.85-12.81,0-24.27-7.33-28.82-19.01h15.7c3.82,4.54,8.37,6.4,14.15,6.4,9.5,0,16.84-7.02,17.56-17.87l-.21-.21ZM219.87,442.24c0-8.99-7.44-17.46-16.94-17.46-8.99,0-16.63,7.64-16.63,17.56s7.23,18.39,17.15,18.39,16.42-8.68,16.42-18.49Z"/><path class="cls-1" d="M253.03,448.96c1.03,5.06,7.33,11.78,15.8,11.78,5.68,0,10.43-2.27,13.22-7.33h14.46c-3.72,11.57-15.49,19.93-27.68,19.93-17.25,0-30.26-13.43-30.26-30.37s12.7-30.78,30.16-30.78,29.65,13.12,29.65,29.85c0,2.17-.31,4.44-.83,6.92h-44.52ZM284.33,437.9c-1.34-8.26-7.02-13.12-15.6-13.12-7.54,0-13.94,4.34-16.11,13.12h31.71Z"/></g></svg>