<?xml version="1.0" encoding="UTF-8"?><svg id="Capa_2" xmlns="http://www.w3.org/2000/svg" viewBox="0 0 472.32 472.32"><defs><style>.cls-1{fill:#fff;}</style></defs><g id="Capa_1"><path d="M472.32,77.57V0H0v472.32h472.32v-239.59c0-14.28-11.58-25.86-25.86-25.86h-51.72c-14.28,0-25.86-11.58-25.86-25.86v-51.72c0-14.28,11.58-25.86,25.86-25.86h51.72c14.28,0,25.86-11.58,25.86-25.86ZM368.89,232.79v51.72c0,14.28-11.58,25.86-25.86,25.86h0c-14.28,0-25.86-11.58-25.86-25.86v-51.72c0-14.28,11.58-25.86,25.86-25.86h0c14.28,0,25.86,11.58,25.86,25.86Z"/><path class="cls-1" d="M47.56,428.6v-35.8h-3.85v-9.67h3.85c.82-12.86,9.5-16.38,14.91-16.38h2.95v10.73c-5.57,0-6.72,1.47-6.96,5.65h6.39v9.67h-6.39v35.8h-10.9Z"/><path class="cls-1" d="M64.2,405.91c0-13.11,10.57-24.33,24.25-24.33s24.09,11.06,24.09,24.17-10.16,24.33-24.09,24.33-24.25-11.06-24.25-24.17ZM101.64,405.99c0-7.46-5.57-14.42-13.27-14.42-7.29,0-13.27,6.72-13.27,14.34s5.57,14.17,13.35,14.17,13.19-6.55,13.19-14.09Z"/><path class="cls-1" d="M116.47,428.6v-45.47h10v4.01h.16c2.87-4.26,5.24-5.57,10.4-5.57h.25v10.57c-6.55.25-9.91,3.77-9.91,10.57v25.89h-10.9Z"/><path class="cls-1" d="M175.04,422.79c-3.6,5.16-8.77,7.29-14.91,7.29-11.72,0-23.27-10.24-23.27-24.66,0-12.86,10.4-23.84,23.18-23.84,5.9,0,11.22,2.21,14.5,7.13h.16v-5.57h10.57v37.93c0,16.47-11.47,26.05-24.82,26.05-10.16,0-19.25-5.82-22.86-15.07h12.45c3.03,3.6,6.64,5.08,11.22,5.08,7.54,0,13.35-5.57,13.93-14.17l-.16-.16ZM174.39,405.42c0-7.13-5.9-13.85-13.44-13.85-7.13,0-13.19,6.06-13.19,13.93s5.73,14.58,13.6,14.58,13.03-6.88,13.03-14.66Z"/><path class="cls-1" d="M200.69,410.74c.82,4.01,5.82,9.34,12.53,9.34,4.51,0,8.27-1.8,10.49-5.82h11.47c-2.95,9.18-12.29,15.81-21.96,15.81-13.68,0-24-10.65-24-24.09s10.08-24.41,23.92-24.41,23.51,10.4,23.51,23.68c0,1.72-.25,3.52-.66,5.49h-35.31ZM225.51,401.98c-1.06-6.55-5.57-10.4-12.37-10.4-5.98,0-11.06,3.44-12.78,10.4h25.15Z"/></g></svg>