<?xml version="1.0" encoding="UTF-8"?><svg id="Capa_3" xmlns="http://www.w3.org/2000/svg" viewBox="0 0 269.28 269.28"><defs><style>.cls-1{fill:#ea3398;}</style></defs><g id="Capa_1"><path class="cls-1" d="M269.28,269.28H0V0h269.28v44.9c0,8.62-7.01,15.63-15.63,15.63h-29.27c-7.52,0-13.63,6.12-13.63,13.63v29.27c0,7.52,6.12,13.63,13.63,13.63h29.27c8.62,0,15.63,7.01,15.63,15.63v136.58ZM2,267.28h265.28v-134.58c0-7.52-6.12-13.63-13.63-13.63h-29.27c-8.62,0-15.63-7.01-15.63-15.63v-29.27c0-8.62,7.01-15.63,15.63-15.63h29.27c7.52,0,13.63-6.12,13.63-13.63V2H2v265.28ZM195.11,177.63c-8.62,0-15.63-7.01-15.63-15.63v-29.27c0-8.62,7.01-15.63,15.63-15.63s15.63,7.01,15.63,15.63v29.27c0,8.62-7.01,15.63-15.63,15.63ZM195.11,119.1c-7.52,0-13.63,6.12-13.63,13.63v29.27c0,7.52,6.12,13.63,13.63,13.63s13.63-6.12,13.63-13.63v-29.27c0-7.52-6.12-13.63-13.63-13.63Z"/><path class="cls-1" d="M27.17,243.54v-20.26h-2.18v-5.47h2.18c.46-7.28,5.38-9.27,8.44-9.27h1.67v6.07c-3.15,0-3.8.83-3.94,3.2h3.62v5.47h-3.62v20.26h-6.17Z"/><path class="cls-1" d="M36.59,230.7c0-7.42,5.98-13.77,13.72-13.77s13.63,6.26,13.63,13.67-5.75,13.77-13.63,13.77-13.72-6.26-13.72-13.68ZM57.77,230.74c0-4.22-3.15-8.16-7.51-8.16-4.13,0-7.51,3.8-7.51,8.11s3.15,8.02,7.56,8.02,7.46-3.71,7.46-7.97Z"/><path class="cls-1" d="M66.16,243.54v-25.73h5.66v2.27h.09c1.62-2.41,2.97-3.15,5.89-3.15h.14v5.98c-3.71.14-5.61,2.13-5.61,5.98v14.65h-6.17Z"/><path class="cls-1" d="M99.31,240.25c-2.04,2.92-4.96,4.13-8.44,4.13-6.63,0-13.17-5.79-13.17-13.95,0-7.28,5.89-13.49,13.12-13.49,3.34,0,6.35,1.25,8.21,4.03h.09v-3.15h5.98v21.46c0,9.32-6.49,14.74-14.05,14.74-5.75,0-10.89-3.29-12.93-8.53h7.05c1.72,2.04,3.75,2.87,6.35,2.87,4.26,0,7.56-3.15,7.88-8.02l-.09-.09ZM98.94,230.42c0-4.03-3.34-7.83-7.6-7.83-4.03,0-7.46,3.43-7.46,7.88s3.25,8.25,7.7,8.25,7.37-3.89,7.37-8.3Z"/><path class="cls-1" d="M113.82,233.43c.46,2.27,3.29,5.28,7.09,5.28,2.55,0,4.68-1.02,5.93-3.29h6.49c-1.67,5.19-6.95,8.95-12.42,8.95-7.74,0-13.58-6.03-13.58-13.63s5.7-13.81,13.54-13.81,13.3,5.89,13.3,13.4c0,.97-.14,1.99-.37,3.11h-19.98ZM127.87,228.47c-.6-3.71-3.15-5.89-7-5.89-3.38,0-6.26,1.95-7.23,5.89h14.23Z"/></g></svg>