<?xml version="1.0" encoding="UTF-8"?><svg id="Capa_3" xmlns="http://www.w3.org/2000/svg" viewBox="0 0 281.05 281.05"><defs><style>.cls-1{fill:#25005b;}.cls-2{fill:#b9aef4;}</style></defs><g id="Capa_1"><circle class="cls-2" cx="140.53" cy="140.53" r="140.53"/><path class="cls-1" d="M200.75,100.08v-19.78h-120.45v120.45h120.45v-61.1c0-3.64-2.95-6.59-6.59-6.59h-13.19c-3.64,0-6.59-2.95-6.59-6.59v-13.19c0-3.64,2.95-6.59,6.59-6.59h13.19c3.64,0,6.59-2.95,6.59-6.59ZM174.37,139.67v13.19c0,3.64-2.95,6.59-6.59,6.59h0c-3.64,0-6.59-2.95-6.59-6.59v-13.19c0-3.64,2.95-6.59,6.59-6.59h0c3.64,0,6.59,2.95,6.59,6.59Z"/></g></svg>