<?xml version="1.0" encoding="UTF-8"?><svg id="Capa_3" xmlns="http://www.w3.org/2000/svg" viewBox="0 0 348.29 348.29"><defs><style>.cls-1{fill:#532793;}.cls-2{fill:#ea3398;}</style></defs><g id="Capa_1"><circle class="cls-1" cx="174.14" cy="174.14" r="174.14"/><path class="cls-2" d="M59.44,211.3v-44.34h-4.77v-11.97h4.77c1.01-15.93,11.77-20.29,18.47-20.29h3.65v13.29c-6.9,0-8.32,1.83-8.62,7h7.91v11.97h-7.91v44.34h-13.5Z"/><path class="cls-2" d="M80.03,183.19c0-16.23,13.09-30.13,30.03-30.13s29.83,13.7,29.83,29.93-12.58,30.13-29.83,30.13-30.03-13.7-30.03-29.93ZM126.4,183.29c0-9.23-6.9-17.86-16.44-17.86-9.03,0-16.44,8.32-16.44,17.76s6.9,17.55,16.54,17.55,16.34-8.12,16.34-17.45Z"/><path class="cls-2" d="M144.77,211.3v-56.31h12.38v4.97h.2c3.55-5.28,6.49-6.9,12.89-6.9h.3v13.09c-8.12.3-12.28,4.67-12.28,13.09v32.06h-13.49Z"/><path class="cls-2" d="M217.32,204.09c-4.46,6.39-10.86,9.03-18.47,9.03-14.51,0-28.82-12.68-28.82-30.54,0-15.93,12.89-29.53,28.71-29.53,7.31,0,13.9,2.74,17.96,8.83h.2v-6.9h13.09v46.98c0,20.39-14.21,32.27-30.74,32.27-12.58,0-23.84-7.2-28.31-18.67h15.42c3.75,4.46,8.22,6.29,13.9,6.29,9.33,0,16.54-6.9,17.25-17.55l-.2-.2ZM216.51,182.58c0-8.83-7.31-17.15-16.64-17.15-8.83,0-16.34,7.51-16.34,17.25s7.1,18.06,16.84,18.06,16.13-8.52,16.13-18.16Z"/><path class="cls-2" d="M249.08,189.18c1.01,4.97,7.2,11.57,15.52,11.57,5.58,0,10.25-2.23,12.99-7.2h14.2c-3.65,11.36-15.22,19.58-27.19,19.58-16.94,0-29.73-13.19-29.73-29.83s12.48-30.24,29.63-30.24,29.12,12.89,29.12,29.32c0,2.13-.3,4.36-.81,6.8h-43.73ZM279.82,178.32c-1.32-8.12-6.9-12.89-15.32-12.89-7.41,0-13.7,4.26-15.83,12.89h31.15Z"/></g></svg>