<?xml version="1.0" encoding="UTF-8"?><svg id="Capa_2" xmlns="http://www.w3.org/2000/svg" viewBox="0 0 1725.65 718.83"><defs><style>.cls-1{fill:#ea3398;}</style></defs><g id="Capa_1"><path class="cls-1" d="M34.43,553.22V233.02H0v-86.47h34.43C41.77,31.51,119.44,0,167.8,0h26.38v95.99c-49.83,0-60.08,13.19-62.29,50.56h57.16v86.47h-57.16v320.21H34.43Z"/><path class="cls-1" d="M183.2,350.26c0-117.24,94.52-217.63,216.89-217.63s215.42,98.92,215.42,216.16-90.86,217.63-215.42,217.63-216.89-98.92-216.89-216.16ZM518.06,350.98c0-66.68-49.84-128.96-118.71-128.96-65.22,0-118.71,60.08-118.71,128.23s49.84,126.76,119.44,126.76,117.98-58.62,117.98-126.04Z"/><path class="cls-1" d="M650.7,553.22V146.55h89.4v35.91h1.47c25.64-38.1,46.89-49.83,93.06-49.83h2.2v94.52c-58.63,2.2-88.67,33.71-88.67,94.53v231.55h-97.45Z"/><path class="cls-1" d="M1174.61,501.2c-32.24,46.16-78.41,65.21-133.36,65.21-104.79,0-208.1-91.59-208.1-220.56,0-115.04,93.06-213.23,207.37-213.23,52.76,0,100.39,19.78,129.7,63.75h1.47v-49.83h94.53v339.26c0,147.28-102.6,233.02-222.03,233.02-90.86,0-172.19-52.03-204.43-134.83h111.37c27.11,32.24,59.36,45.43,100.39,45.43,67.41,0,119.44-49.83,124.56-126.76l-1.47-1.46ZM1168.75,345.86c0-63.75-52.76-123.83-120.17-123.83-63.74,0-117.97,54.22-117.97,124.57s51.29,130.43,121.64,130.43,116.5-61.55,116.5-131.16Z"/><path class="cls-1" d="M1403.97,393.49c7.32,35.9,52.02,83.53,112.11,83.53,40.3,0,74.01-16.12,93.79-52.03h102.59c-26.38,82.07-109.92,141.42-196.38,141.42-122.36,0-214.7-95.25-214.7-215.43s90.13-218.35,213.96-218.35,210.3,93.06,210.3,211.76c0,15.39-2.2,31.51-5.87,49.1h-315.81ZM1625.99,315.08c-9.52-58.62-49.82-93.06-110.64-93.06-53.49,0-98.92,30.78-114.31,93.06h224.95Z"/></g></svg>