<?xml version="1.0" encoding="UTF-8"?><svg id="Capa_3" xmlns="http://www.w3.org/2000/svg" viewBox="0 0 662.6 662.6"><defs><style>.cls-1{fill:#25005b;}</style></defs><g id="Capa_1"><path class="cls-1" d="M662.6,662.6H0V0h662.6v110.48c0,21.21-17.26,38.47-38.47,38.47h-72.01c-18.5,0-33.54,15.05-33.54,33.55v72.01c0,18.5,15.05,33.54,33.54,33.54h72.01c21.21,0,38.47,17.26,38.47,38.47v336.08ZM4.92,657.67h652.75v-331.16c0-18.5-15.05-33.55-33.55-33.55h-72.01c-21.21,0-38.46-17.26-38.46-38.47v-72.01c0-21.21,17.26-38.47,38.46-38.47h72.01c18.5,0,33.55-15.05,33.55-33.54V4.92H4.92v652.75ZM480.1,437.08c-21.21,0-38.47-17.26-38.47-38.47v-72.01c0-21.21,17.26-38.47,38.47-38.47s38.47,17.26,38.47,38.47v72.01c0,21.21-17.26,38.47-38.47,38.47ZM480.1,293.06c-18.5,0-33.55,15.05-33.55,33.54v72.01c0,18.5,15.05,33.55,33.55,33.55s33.55-15.05,33.55-33.55v-72.01c0-18.5-15.05-33.54-33.55-33.54Z"/><path class="cls-1" d="M148.35,485.16l-20.45-70.8h-.39l-20.65,70.8h-16.12l-39.33-109.14h27.93l19.86,66.67h.39l17.89-66.67h20.85l17.7,66.67h.39l20.06-66.67h27.92l-39.92,109.14h-16.13Z"/><path class="cls-1" d="M232.32,442.29c1.97,9.64,13.96,22.42,30.09,22.42,10.82,0,19.86-4.33,25.17-13.96h27.53c-7.08,22.03-29.5,37.95-52.7,37.95-32.84,0-57.62-25.56-57.62-57.82s24.19-58.6,57.42-58.6,56.44,24.98,56.44,56.83c0,4.13-.59,8.46-1.57,13.18h-84.76ZM291.91,421.25c-2.56-15.73-13.37-24.98-29.7-24.98-14.36,0-26.55,8.26-30.68,24.98h60.37Z"/><path class="cls-1" d="M145.79,612.19v-13.57c-8.65,10.23-24.78,17.11-38.35,17.11-30.68,0-52.9-25.76-52.9-58.8s23.01-57.62,54.67-57.62c15.34,0,30.48,9.05,36.18,17.5h.39v-13.77h23.99v109.14h-23.99ZM145.01,557.33c0-19.08-13.18-34.02-32.05-34.02s-32.25,15.34-32.25,34.81c0,18.29,13.96,33.63,32.45,33.63s31.86-15.73,31.86-34.41Z"/><path class="cls-1" d="M183.55,612.19v-109.14h23.99v9.64h.39c6.88-10.23,12.59-13.37,24.98-13.37h.59v25.37c-15.73.59-23.79,9.05-23.79,25.37v62.14h-26.16Z"/><path class="cls-1" d="M254.54,569.32c1.97,9.64,13.96,22.42,30.09,22.42,10.82,0,19.86-4.33,25.17-13.96h27.53c-7.08,22.03-29.5,37.95-52.7,37.95-32.84,0-57.62-25.57-57.62-57.82s24.19-58.6,57.42-58.6,56.44,24.98,56.44,56.83c0,4.13-.59,8.46-1.57,13.18h-84.76ZM314.13,548.28c-2.56-15.73-13.37-24.97-29.7-24.97-14.36,0-26.55,8.26-30.68,24.97h60.37Z"/></g></svg>